<svg width="66" height="17" viewBox="0 0 66 17" fill="none" xmlns="http://www.w3.org/2000/svg">
<path d="M4.59812 4.29443C4.57469 4.25537 4.56297 4.21436 4.56297 4.17139C4.56297 4.09717 4.59422 4.03271 4.65672 3.97803C4.72312 3.91943 4.79148 3.89014 4.8618 3.89014C4.99461 3.89014 5.11375 3.93896 5.21922 4.03662C5.32469 4.13037 5.37742 4.22412 5.37742 4.31787C5.37742 4.50146 5.29539 4.66553 5.13133 4.81006C4.97117 4.95459 4.78172 5.02686 4.56297 5.02686C4.32859 5.02686 4.12547 4.94873 3.95359 4.79248C3.78562 4.63232 3.70164 4.44287 3.70164 4.22412C3.70164 4.00928 3.83445 3.80225 4.10008 3.60303C4.36961 3.3999 4.69187 3.29834 5.06687 3.29834C5.44578 3.29834 5.79539 3.40967 6.1157 3.63232C6.43992 3.85498 6.60203 4.12451 6.60203 4.44092C6.60203 4.94482 6.39305 5.32568 5.97508 5.5835C5.56102 5.8374 4.8032 6.0249 3.70164 6.146C3.73289 7.06396 3.74852 7.83936 3.74852 8.47217C3.74852 9.29248 3.71141 10.6011 3.63719 12.3979C4.26609 12.3979 4.77586 12.3179 5.16648 12.1577V12.5269C4.6157 12.6089 4.04344 12.6577 3.44969 12.6733C3.24656 12.6812 2.96141 12.7241 2.59422 12.8022V12.48L3.32664 12.4331C3.32664 11.6479 3.26414 10.5757 3.13914 9.21631C3.01414 7.85303 2.87352 6.87256 2.71727 6.2749C2.22117 6.37646 1.48484 6.47607 0.508281 6.57373L0.590312 7.68115L0.279766 7.71631C0.252422 7.021 0.195781 6.48975 0.109844 6.12256L0.414531 6.06982L0.461406 6.31006C1.53562 6.21631 2.56297 6.08154 3.54344 5.90576C4.52391 5.72998 5.18602 5.52881 5.52977 5.30225C5.87742 5.07178 6.05125 4.74365 6.05125 4.31787C6.05125 4.07178 5.95945 3.86865 5.77586 3.7085C5.59617 3.54834 5.35203 3.46826 5.04344 3.46826C4.82469 3.46826 4.61766 3.54639 4.42234 3.70264C4.22703 3.85498 4.12937 4.02881 4.12937 4.22412C4.12937 4.37646 4.1782 4.521 4.27586 4.65771C4.37742 4.79443 4.49266 4.86279 4.62156 4.86279C4.76219 4.86279 4.87352 4.82178 4.95555 4.73975C5.03758 4.65771 5.07859 4.55811 5.07859 4.44092C5.07859 4.38232 5.05711 4.32373 5.01414 4.26514C4.97117 4.20654 4.91648 4.17725 4.85008 4.17725C4.79148 4.17725 4.7075 4.21631 4.59812 4.29443ZM13.352 12.5854C12.9966 12.7573 12.5063 12.8706 11.8813 12.9253C11.6196 11.7847 11.4595 10.605 11.4009 9.38623C11.2368 9.40186 10.9712 9.40967 10.604 9.40967C9.98289 9.40967 9.44773 9.37256 8.99852 9.29834C8.78758 10.3999 8.48289 11.2437 8.08445 11.8296C7.68992 12.4155 7.22312 12.7085 6.68406 12.7085C6.41453 12.7085 6.1743 12.5815 5.96336 12.3276C5.75633 12.0698 5.65281 11.7964 5.65281 11.5073C5.65281 11.2729 5.74656 11.021 5.93406 10.7515C6.12156 10.478 6.32273 10.3413 6.53758 10.3413C6.65086 10.3413 6.76414 10.4038 6.87742 10.5288C6.99461 10.6499 7.0532 10.769 7.0532 10.8862C7.0532 11.0229 7.01219 11.1655 6.93016 11.314C6.84812 11.4585 6.75047 11.5308 6.63719 11.5308C6.62156 11.5308 6.59227 11.519 6.5493 11.4956C6.66258 11.4097 6.71922 11.3022 6.71922 11.1733C6.71922 11.0913 6.68992 11.0112 6.63133 10.9331C6.57273 10.8511 6.50633 10.8101 6.43211 10.8101C6.06492 10.8101 5.88133 10.9741 5.88133 11.3022C5.88133 11.603 5.96336 11.8257 6.12742 11.9702C6.29148 12.1108 6.56883 12.1812 6.95945 12.1812C7.51805 12.1812 7.90477 11.855 8.11961 11.2026C8.33836 10.5464 8.44773 9.86865 8.44773 9.16943C7.13523 8.87256 6.47898 8.42334 6.47898 7.82178C6.47898 7.6499 6.53172 7.49365 6.63719 7.35303C6.74656 7.2124 6.87742 7.14209 7.02977 7.14209H7.15281C7.01609 7.30615 6.94773 7.49365 6.94773 7.70459C6.94773 8.00146 7.08055 8.25928 7.34617 8.47803C7.6118 8.69678 7.97508 8.85889 8.43602 8.96436C8.41258 8.66357 8.40086 8.36279 8.40086 8.06201C8.40086 7.46045 8.47703 6.96436 8.62937 6.57373C8.78172 6.1792 9.03758 5.82959 9.39695 5.5249C9.75633 5.21631 10.1606 4.98779 10.6098 4.83936C11.0591 4.68701 11.518 4.61084 11.9868 4.61084C12.268 4.61084 12.4321 4.61475 12.479 4.62256C12.1352 6.22412 11.9438 7.64404 11.9048 8.88232C11.9751 8.8667 12.0825 8.8335 12.227 8.78271L12.2505 9.29834C12.0825 9.31396 11.9673 9.32568 11.9048 9.3335V9.75537C11.9048 10.9976 11.9809 11.937 12.1333 12.5737C12.4223 12.5659 12.8052 12.4663 13.2817 12.2749L13.352 12.5854ZM11.5884 4.89795C10.9204 4.87451 10.3696 5.09717 9.93602 5.56592C9.50633 6.03467 9.22898 7.01514 9.10398 8.50732C9.08445 8.76904 9.06492 8.95654 9.04539 9.06982C9.36961 9.10498 9.62547 9.12256 9.81297 9.12256C10.2309 9.12256 10.7524 9.07764 11.3774 8.98779C11.3579 8.52295 11.3481 8.15967 11.3481 7.89795C11.3481 6.83545 11.4282 5.83545 11.5884 4.89795ZM19.5688 12.9839C19.7563 12.9956 19.8501 13.0464 19.8501 13.1362C19.8501 13.2417 19.7915 13.3472 19.6743 13.4526C19.5571 13.5581 19.4341 13.6108 19.3052 13.6108C19.1528 13.6108 19.0063 13.564 18.8657 13.4702C18.729 13.3765 18.6606 13.2671 18.6606 13.1421C18.6606 12.9624 18.7466 12.7905 18.9184 12.6265C19.0903 12.4585 19.272 12.3745 19.4634 12.3745C19.772 12.3745 20.0298 12.4546 20.2368 12.6147C20.4477 12.7749 20.5532 12.9702 20.5532 13.2007C20.5532 13.4702 20.4106 13.7241 20.1255 13.9624C19.8403 14.2046 19.4985 14.3257 19.1001 14.3257C18.7251 14.3257 18.4223 14.2124 18.1919 13.9858C17.9653 13.7632 17.852 13.4741 17.852 13.1187C17.852 12.9194 17.8852 12.603 17.9516 12.1694C18.022 11.7319 18.0571 11.2866 18.0571 10.8335C18.0571 9.63428 17.3501 9.03467 15.936 9.03467L15.9126 8.85889C17.1977 8.53467 17.8403 7.82178 17.8403 6.72021C17.8403 6.27881 17.647 5.91943 17.2602 5.64209C16.8735 5.36084 16.4438 5.22021 15.9712 5.22021C15.8071 5.22021 15.6157 5.23193 15.397 5.25537C15.2993 6.31787 15.2505 7.90576 15.2505 10.019C15.2505 10.2222 15.2622 10.9233 15.2856 12.1226C15.6216 12.1226 16.018 12.0503 16.4751 11.9058V12.228C16.0337 12.3257 15.5942 12.3745 15.1567 12.3745C14.9536 12.3745 14.5532 12.4136 13.9555 12.4917V12.1577L14.9985 12.1343C14.7134 9.11084 14.5337 6.85107 14.4595 5.35498L13.5923 5.49561V5.22021C14.7876 5.04443 15.6762 4.95654 16.2583 4.95654C16.9809 4.95654 17.5805 5.12646 18.0571 5.46631C18.5376 5.80615 18.7778 6.17139 18.7778 6.56201C18.7778 6.94873 18.5923 7.35303 18.2212 7.7749C17.854 8.19678 17.3403 8.54053 16.6802 8.80615C17.3872 8.896 17.9145 9.06006 18.2622 9.29834C18.6137 9.53662 18.7895 9.91748 18.7895 10.4409C18.7895 10.73 18.6802 11.1675 18.4614 11.7534C18.2427 12.3394 18.1333 12.8101 18.1333 13.1655C18.1333 13.4546 18.2251 13.689 18.4087 13.8687C18.5923 14.0483 18.8442 14.1382 19.1645 14.1382C19.438 14.1382 19.6665 14.0522 19.8501 13.8804C20.0337 13.7124 20.1255 13.521 20.1255 13.3062C20.1255 12.8022 19.9087 12.5503 19.4751 12.5503C19.3852 12.5503 19.2993 12.5933 19.2173 12.6792C19.1391 12.7651 19.1001 12.8628 19.1001 12.9722C19.1001 13.0972 19.1274 13.2007 19.1821 13.2827C19.2407 13.3647 19.3071 13.4058 19.3813 13.4058C19.5141 13.4058 19.5766 13.2651 19.5688 12.9839ZM23.8872 7.20068C23.8247 7.29443 23.7446 7.34131 23.647 7.34131C23.5805 7.34131 23.5161 7.29053 23.4536 7.18896C23.3911 7.0874 23.3598 6.99951 23.3598 6.92529C23.3598 6.83936 23.4145 6.74365 23.5239 6.63818C23.6372 6.53271 23.7544 6.47998 23.8755 6.47998C23.9927 6.47998 24.1196 6.55615 24.2563 6.7085C24.393 6.86084 24.4614 7.00146 24.4614 7.13037C24.4614 7.42725 24.3657 7.67725 24.1743 7.88037C23.9868 8.0835 23.7856 8.18506 23.5708 8.18506C23.3247 8.18506 23.1098 8.07373 22.9262 7.85107C22.7427 7.62451 22.6509 7.37646 22.6509 7.10693C22.6509 6.72021 22.8384 6.35303 23.2134 6.00537C23.5884 5.65771 24.0571 5.48389 24.6196 5.48389C25.4477 5.48389 26.1919 5.82959 26.852 6.521C27.5122 7.2124 27.8423 7.96631 27.8423 8.78271C27.8423 9.81006 27.4848 10.7417 26.77 11.5776C26.0552 12.4097 25.229 12.8257 24.2915 12.8257C23.2095 12.8257 22.2915 12.4702 21.5376 11.7593C20.7837 11.0444 20.4067 10.2007 20.4067 9.22803C20.4067 8.28271 20.7095 7.42139 21.3149 6.64404C21.9243 5.8667 22.6723 5.36865 23.5591 5.1499L23.6352 5.32568C22.9165 5.46631 22.3384 5.88818 21.9009 6.59131C21.4634 7.29443 21.2446 8.12061 21.2446 9.06982C21.2446 10.0659 21.5395 10.9077 22.1294 11.5952C22.7192 12.2827 23.4731 12.6265 24.3911 12.6265C25.1333 12.6265 25.7446 12.2632 26.2251 11.5366C26.7055 10.8101 26.9458 9.97217 26.9458 9.02295C26.9458 8.08154 26.7134 7.3042 26.2485 6.69092C25.7837 6.07764 25.1841 5.771 24.4497 5.771C24.0005 5.771 23.6216 5.90967 23.313 6.18701C23.0083 6.46045 22.8559 6.76123 22.8559 7.08936C22.8559 7.26514 22.9282 7.41162 23.0727 7.52881C23.2173 7.646 23.3677 7.70459 23.5239 7.70459C23.7231 7.70459 23.893 7.65771 24.0337 7.56396C24.1743 7.46631 24.2446 7.34912 24.2446 7.2124C24.2446 7.09912 24.2036 7.00537 24.1216 6.93115C24.0395 6.85303 23.9497 6.81396 23.852 6.81396C23.6255 6.81396 23.5122 6.85107 23.5122 6.92529C23.5122 6.9917 23.6372 7.0835 23.8872 7.20068ZM35.313 9.28662C35.2544 9.46631 35.2251 9.66357 35.2251 9.87842C34.9555 9.78076 34.5649 9.73193 34.0532 9.73193C33.7407 9.73193 33.4028 9.74951 33.0395 9.78467C32.6802 9.81982 32.4087 9.84326 32.2251 9.85498C32.2251 9.64404 32.2134 9.48779 32.1899 9.38623C32.6509 9.38623 33.1762 9.37061 33.7661 9.33936C34.3559 9.3042 34.8716 9.28662 35.313 9.28662ZM45.8481 11.0503C45.8012 9.20654 45.7778 8.14404 45.7778 7.86279C45.7778 7.03857 45.8188 6.43311 45.9009 6.04639C45.9868 5.65967 46.2016 5.35107 46.5454 5.12061C46.8891 4.89014 47.313 4.7749 47.8169 4.7749C48.1255 4.7749 48.3735 4.83545 48.561 4.95654C48.7524 5.07764 48.8481 5.2417 48.8481 5.44873C48.8481 5.60498 48.727 5.771 48.4848 5.94678C48.2427 6.11865 47.9555 6.20459 47.6235 6.20459C47.4751 6.20459 47.311 6.1499 47.1313 6.04053C46.9555 5.92725 46.8677 5.82178 46.8677 5.72412C46.8677 5.59131 46.9067 5.48584 46.9848 5.40771C47.063 5.32959 47.1645 5.29053 47.2895 5.29053C47.395 5.29053 47.4751 5.33545 47.5298 5.42529C47.4165 5.54639 47.3598 5.63818 47.3598 5.70068C47.3598 5.92334 47.4927 6.03467 47.7583 6.03467C47.9262 6.03467 48.0532 5.9917 48.1391 5.90576C48.229 5.81982 48.2739 5.71436 48.2739 5.58936C48.2739 5.39795 48.1958 5.25342 48.0395 5.15576C47.8872 5.0542 47.686 5.00342 47.436 5.00342C46.9868 5.00342 46.6411 5.24756 46.3989 5.73584C46.1606 6.22412 46.0415 7.24756 46.0415 8.80615C46.0415 10.3218 46.1294 11.6187 46.3052 12.6968L46.0884 12.7319C44.5063 9.63428 43.2387 7.40967 42.2856 6.05811C42.3755 6.9917 42.4204 8.05029 42.4204 9.23389C42.4204 10.0347 42.393 10.6616 42.3384 11.1147C42.2876 11.5679 42.1567 11.9663 41.9458 12.3101C41.7387 12.6538 41.4165 12.8257 40.979 12.8257C40.518 12.8257 40.1079 12.6948 39.7485 12.4331C39.393 12.1714 39.2153 11.8472 39.2153 11.4604C39.2153 11.1831 39.3579 10.9194 39.643 10.6694C39.9282 10.4194 40.2329 10.2944 40.5571 10.2944C40.729 10.2944 40.8794 10.3374 41.0083 10.4233C41.1411 10.5093 41.2075 10.6187 41.2075 10.7515C41.2075 10.9194 41.1333 11.0659 40.9848 11.1909C40.8364 11.3159 40.6509 11.3784 40.4282 11.3784C40.3657 11.3784 40.313 11.3569 40.27 11.314C40.2309 11.271 40.2114 11.2202 40.2114 11.1616C40.2114 11.0991 40.2427 11.0347 40.3052 10.9683C40.3286 10.9839 40.3696 11.0269 40.4282 11.0972C40.4907 11.1636 40.5493 11.1968 40.604 11.1968C40.772 11.1968 40.8559 11.1089 40.8559 10.9331C40.8559 10.8315 40.7876 10.7378 40.6509 10.6519C40.518 10.5659 40.3833 10.5229 40.2466 10.5229C40.0942 10.5229 39.9614 10.6011 39.8481 10.7573C39.7387 10.9097 39.6841 11.064 39.6841 11.2202C39.6841 11.5483 39.768 11.8491 39.936 12.1226C40.1079 12.3921 40.3266 12.5269 40.5923 12.5269C41.1118 12.5269 41.5063 12.2417 41.7759 11.6714C42.0454 11.0972 42.1802 10.3179 42.1802 9.3335C42.1802 8.66553 42.1333 7.89014 42.0395 7.00732C41.9497 6.12451 41.8716 5.55225 41.8052 5.29053L40.2583 5.35498V5.08545C41.2622 5.08545 42.0903 5.03467 42.7427 4.93311C43.6528 7.04248 44.688 9.08154 45.8481 11.0503ZM50.1196 5.79443L50.0493 5.80615C49.9009 5.56787 49.6802 5.44873 49.3872 5.44873C49.1645 5.44873 48.9614 5.51514 48.7778 5.64795C48.5942 5.78076 48.5024 5.93506 48.5024 6.11084C48.5024 6.32178 48.5805 6.48975 48.7368 6.61475C48.893 6.73975 49.0454 6.80225 49.1938 6.80225C49.4907 6.80225 49.6391 6.67139 49.6391 6.40967C49.6391 6.11279 49.5239 5.96436 49.2934 5.96436C49.2505 5.96436 49.2036 5.98193 49.1528 6.01709C49.102 6.04834 49.0766 6.0874 49.0766 6.13428C49.0766 6.22803 49.1333 6.2749 49.2466 6.2749C49.2973 6.2749 49.3598 6.25146 49.4341 6.20459C49.3911 6.40381 49.2993 6.50342 49.1587 6.50342C49.0962 6.50342 49.0395 6.46631 48.9887 6.39209C48.9419 6.31787 48.9184 6.25537 48.9184 6.20459C48.9184 6.10693 48.9595 6.02295 49.0415 5.95264C49.1235 5.87842 49.2231 5.84131 49.3403 5.84131C49.4966 5.84131 49.6411 5.88428 49.7739 5.97021C49.9067 6.05615 49.9731 6.17725 49.9731 6.3335C49.9731 6.49756 49.8891 6.63818 49.7212 6.75537C49.5571 6.86865 49.3774 6.92529 49.1821 6.92529C48.9516 6.92529 48.7505 6.84521 48.5786 6.68506C48.4067 6.5249 48.3208 6.32373 48.3208 6.08154C48.3208 5.82764 48.4106 5.60303 48.5903 5.40771C48.77 5.2124 48.9634 5.11475 49.1704 5.11475C49.6899 5.11475 50.0063 5.34131 50.1196 5.79443ZM50.5415 12.855C49.6391 12.855 49.0766 12.8687 48.854 12.896C48.6313 12.9272 48.438 12.9604 48.2739 12.9956V12.6733L49.0298 12.6499C49.0298 10.9546 48.9419 9.3335 48.7661 7.78662L48.1157 7.76318V7.54639C48.518 7.5542 48.7973 7.55811 48.9536 7.55811C49.2309 7.55811 49.604 7.48584 50.0727 7.34131V7.61084L49.5454 7.73975L49.4223 9.62646L49.2817 12.603C49.727 12.603 50.147 12.5776 50.5415 12.5269V12.855ZM52.3872 12.4683C52.7895 12.269 53.0688 12.1245 53.2251 12.0347C53.3813 11.9409 53.6313 11.8276 53.9751 11.6948C54.3227 11.562 54.6489 11.4956 54.9536 11.4956C55.2427 11.4956 55.477 11.6128 55.6567 11.8472C55.8364 12.0776 55.9262 12.3687 55.9262 12.7202C55.9262 13.3062 55.6411 13.8335 55.0708 14.3022C54.5044 14.7749 53.7778 15.0112 52.8911 15.0112C52.3481 15.0112 51.8774 14.8706 51.479 14.5894C51.0845 14.3081 50.8872 13.9722 50.8872 13.5815C50.8872 13.0972 51.227 12.6772 51.9067 12.3218L51.977 12.4448C51.6723 12.6675 51.52 12.9917 51.52 13.4175C51.52 13.8003 51.645 14.1323 51.895 14.4136C52.1489 14.6987 52.4887 14.8413 52.9145 14.8413C53.6841 14.8413 54.3071 14.6265 54.7837 14.1968C55.2641 13.7671 55.5044 13.3354 55.5044 12.9019C55.5044 12.7065 55.438 12.5464 55.3052 12.4214C55.1762 12.2925 55.0083 12.228 54.8012 12.228C54.4966 12.228 54.2036 12.2671 53.9223 12.3452C53.645 12.4233 53.3364 12.5483 52.9966 12.7202C52.6567 12.8882 52.3696 13.0522 52.1352 13.2124L51.977 13.1187C52.0825 12.9233 52.1587 12.5933 52.2055 12.1284C52.2563 11.6636 52.2973 11.312 52.3286 11.0737C51.8794 10.9644 51.518 10.7495 51.2446 10.4292C50.9751 10.105 50.8403 9.73584 50.8403 9.32178C50.8403 8.69678 51.0571 8.15576 51.4907 7.69873C51.9243 7.23779 52.3989 7.00732 52.9145 7.00732C53.2427 7.00732 53.5141 7.0874 53.729 7.24756C53.5454 6.97803 53.4536 6.70264 53.4536 6.42139C53.4536 6.18701 53.5415 5.98975 53.7173 5.82959C53.897 5.66943 54.1216 5.58936 54.3911 5.58936C54.5942 5.58936 54.7641 5.64795 54.9009 5.76514C55.0415 5.88232 55.1118 6.01318 55.1118 6.15771C55.1118 6.28271 55.0571 6.396 54.9477 6.49756C54.8423 6.59912 54.7134 6.6499 54.561 6.6499C54.4712 6.6499 54.4028 6.58154 54.3559 6.44482C54.4536 6.46826 54.518 6.47998 54.5493 6.47998C54.6665 6.47998 54.7251 6.38037 54.7251 6.18115C54.7251 6.06006 54.6958 5.9585 54.6372 5.87646C54.5786 5.79053 54.5005 5.74756 54.4028 5.74756C54.2192 5.74756 54.0766 5.81982 53.9751 5.96436C53.8774 6.10889 53.8286 6.30029 53.8286 6.53857C53.8286 6.93701 53.8716 7.21436 53.9575 7.37061L53.7876 7.47607C53.5884 7.29248 53.3091 7.20068 52.9497 7.20068C52.5122 7.20068 52.1548 7.39209 51.8774 7.7749C51.6001 8.15381 51.4614 8.60303 51.4614 9.12256C51.4614 9.68506 51.5688 10.1265 51.7837 10.4468C51.9985 10.7632 52.2641 10.9214 52.5805 10.9214C52.9634 10.9214 53.2915 10.73 53.5649 10.3472C53.8423 9.96045 53.9809 9.52686 53.9809 9.04639C53.9809 8.72607 53.8794 8.43506 53.6762 8.17334C53.477 7.90771 53.2427 7.7749 52.9731 7.7749C52.8598 7.7749 52.7544 7.82764 52.6567 7.93311C52.563 8.03857 52.5161 8.15771 52.5161 8.29053C52.5161 8.45459 52.5454 8.59521 52.604 8.7124C52.6626 8.82568 52.7427 8.88232 52.8442 8.88232C52.8872 8.88232 52.9399 8.85498 53.0024 8.80029C53.0649 8.7417 53.0962 8.66748 53.0962 8.57764C53.0962 8.48389 53.0669 8.43701 53.0083 8.43701C52.9341 8.43701 52.8677 8.46826 52.8091 8.53076C52.8091 8.43311 52.8325 8.35303 52.8794 8.29053C52.9262 8.22803 52.977 8.19678 53.0317 8.19678C53.2661 8.19678 53.3833 8.3042 53.3833 8.51904C53.3833 8.64014 53.3208 8.75342 53.1958 8.85889C53.0708 8.96045 52.9419 9.01123 52.8091 9.01123C52.6137 9.01123 52.4516 8.94678 52.3227 8.81787C52.1977 8.68896 52.1352 8.5249 52.1352 8.32568C52.1352 8.19678 52.2231 8.0542 52.3989 7.89795C52.5786 7.73779 52.7661 7.65771 52.9614 7.65771C53.3755 7.65771 53.7387 7.80225 54.0512 8.09131C54.3637 8.37646 54.52 8.72412 54.52 9.13428C54.52 9.65771 54.3052 10.1167 53.8755 10.5112C53.4458 10.9058 53.0005 11.103 52.5395 11.103C52.4848 11.7593 52.4341 12.2144 52.3872 12.4683ZM60.145 12.4683C59.9341 12.4839 59.8286 12.3862 59.8286 12.1753C59.8286 12.0737 59.8813 11.978 59.9868 11.8882C60.0923 11.7944 60.2016 11.7476 60.3149 11.7476C60.393 11.7476 60.5083 11.7808 60.6606 11.8472C60.813 11.9136 60.8891 12.0405 60.8891 12.228C60.8891 12.5601 60.7895 12.8394 60.5903 13.0659C60.395 13.2925 60.1704 13.4058 59.9165 13.4058C59.7485 13.4058 59.5805 13.3022 59.4126 13.0952C59.2446 12.8921 59.1606 12.6831 59.1606 12.4683C59.1606 12.1401 59.2641 11.7183 59.4712 11.2026C59.6782 10.687 59.7817 10.2378 59.7817 9.85498C59.7817 8.58936 59.311 7.95654 58.3696 7.95654C58.0454 7.95654 57.7466 8.12061 57.4731 8.44873C57.2036 8.77686 57.0688 9.03271 57.0688 9.21631C57.1001 10.4233 57.1333 11.6304 57.1684 12.8374C57.3872 12.8257 57.6782 12.8218 58.0415 12.8257L58.018 13.1421C57.7993 13.1187 57.522 13.1069 57.186 13.1069C56.6391 13.1069 56.2134 13.1343 55.9087 13.189L55.897 12.9136C56.2837 12.9136 56.6079 12.8979 56.8696 12.8667C56.893 12.144 56.7895 10.8062 56.5591 8.85303C56.3325 6.896 56.0864 5.34912 55.8208 4.2124C55.6528 4.23975 55.3774 4.26318 54.9946 4.28271L54.9829 4.04248C55.5141 4.03857 56.3305 3.93115 57.4321 3.72021L57.4438 3.94873C57.1548 4.00732 56.9223 4.05029 56.7466 4.07764C56.8052 4.52686 56.8579 5.20264 56.9048 6.10498L57.0454 8.72412C57.2173 8.34912 57.4595 8.05029 57.772 7.82764C58.0845 7.60107 58.4067 7.48779 58.7387 7.48779C59.2622 7.48779 59.6919 7.67725 60.0278 8.05615C60.3677 8.43115 60.5376 8.8374 60.5376 9.2749C60.5376 9.85693 60.2934 10.5073 59.8052 11.2261C59.6606 11.4409 59.5552 11.6206 59.4887 11.7651C59.4262 11.9058 59.395 12.0757 59.395 12.2749C59.395 12.5327 59.4927 12.7144 59.688 12.8198C59.8872 12.9292 60.0591 12.9839 60.2036 12.9839C60.3325 12.9839 60.4321 12.9409 60.5024 12.855C60.5766 12.769 60.6137 12.6577 60.6137 12.521C60.6137 12.3804 60.5766 12.2476 60.5024 12.1226C60.4321 11.9937 60.352 11.9292 60.2622 11.9292C60.1489 11.9292 60.0923 12.0386 60.0923 12.2573C60.0923 12.3628 60.1098 12.4331 60.145 12.4683ZM64.8384 7.07764C64.518 7.13623 64.2524 7.1792 64.0415 7.20654C63.8345 7.22998 63.5317 7.3042 63.1333 7.4292C63.1137 7.6792 62.9985 8.29443 62.7876 9.2749C62.5766 10.2515 62.4712 10.9116 62.4712 11.2554C62.4712 11.7007 62.561 12.0425 62.7407 12.2808C62.9243 12.519 63.1821 12.6382 63.5141 12.6382C63.7563 12.6382 63.9419 12.5308 64.0708 12.3159C64.2036 12.0972 64.27 11.8159 64.27 11.4722C64.27 11.3394 64.2231 11.2026 64.1294 11.062C64.0356 10.9214 63.9321 10.8511 63.8188 10.8511C63.7173 10.8511 63.6352 10.8999 63.5727 10.9976C63.5102 11.0952 63.479 11.2085 63.479 11.3374C63.479 11.4507 63.5317 11.5073 63.6372 11.5073C63.7427 11.5073 63.8188 11.4233 63.8657 11.2554L63.936 11.3022C63.936 11.4233 63.9009 11.5249 63.8305 11.6069C63.7641 11.6851 63.6919 11.7241 63.6137 11.7241C63.4848 11.7241 63.3618 11.6831 63.2446 11.6011C63.1313 11.5151 63.0747 11.4077 63.0747 11.2788C63.0747 11.1108 63.147 10.9624 63.2915 10.8335C63.4399 10.7007 63.5981 10.6343 63.7661 10.6343C63.9809 10.6343 64.1938 10.7085 64.4048 10.8569C64.6196 11.0054 64.727 11.1616 64.727 11.3257C64.727 11.6968 64.6137 12.0405 64.3872 12.3569C64.1606 12.6694 63.8989 12.8257 63.602 12.8257C63.1489 12.8257 62.7876 12.6851 62.518 12.4038C62.2485 12.1187 62.1137 11.7437 62.1137 11.2788C62.1137 11.0483 62.1587 10.4292 62.2485 9.42139C62.3423 8.40967 62.3852 7.82178 62.3774 7.65771L61.2934 7.96826V7.646L62.3774 7.39404C62.3852 7.27686 62.3891 7.14014 62.3891 6.98389C62.3891 6.51904 62.3559 6.06787 62.2895 5.63037L63.2973 5.46045C63.3091 5.94873 63.2622 6.51318 63.1567 7.15381C63.645 6.99756 63.9751 6.90381 64.147 6.87256C64.3188 6.8374 64.52 6.78662 64.7505 6.72021L64.8384 7.07764Z" fill="#231F20"/>
</svg>
